HIERARCHY
ROOT Root
{
  OFFSET 0.0 0.0 0.0
  CHANNELS 6 Xposition Yposition Zposition Zrotation Yrotation Xrotation
  JOINT Hips
  {
    OFFSET 0.0 100.0 0.0
    CHANNELS 6 Xposition Yposition Zposition Zrotation Yrotation Xrotation
    JOINT Spine1
    {
      OFFSET -0.013727 5.003763 -0.053727
      CHANNELS 3 Zrotation Yrotation Xrotation
      JOINT Spine2
      {
        OFFSET -0.0 7.125301 -0.029825
        CHANNELS 3 Zrotation Yrotation Xrotation
        JOINT Chest
        {
          OFFSET -1e-06 7.550063 -0.815971
          CHANNELS 3 Zrotation Yrotation Xrotation
          JOINT Neck1
          {
            OFFSET -0.181677 26.311295 -0.553348
            CHANNELS 3 Zrotation Yrotation Xrotation
            JOINT Neck2
            {
              OFFSET -3e-06 7.709397 2.302585
              CHANNELS 3 Zrotation Yrotation Xrotation
              JOINT Head
              {
                OFFSET -5e-06 6.128916 1.953709
                CHANNELS 3 Zrotation Yrotation Xrotation
                JOINT HeadEnd
                {
                  OFFSET 0.003598 16.065403 -1.835379
                  CHANNELS 3 Zrotation Yrotation Xrotation
                }
                JOINT Jaw
                {
                  OFFSET 0.002637 0.475592 3.094941
                  CHANNELS 3 Zrotation Yrotation Xrotation
                }
                JOINT LeftEye
                {
                  OFFSET 3.206381 5.380205 7.586883
                  CHANNELS 3 Zrotation Yrotation Xrotation
                }
                JOINT RightEye
                {
                  OFFSET -3.22244 5.361869 7.558234
                  CHANNELS 3 Zrotation Yrotation Xrotation
                }
              }
            }
          }
          JOINT LeftShoulder
          {
            OFFSET 1.621652 23.237164 5.113413
            CHANNELS 3 Zrotation Yrotation Xrotation
            JOINT LeftArm
            {
              OFFSET 14.919846 2e-06 -5.502326
              CHANNELS 3 Zrotation Yrotation Xrotation
              JOINT LeftForeArm
              {
                OFFSET 28.739307 0.0 -0.002588
                CHANNELS 3 Zrotation Yrotation Xrotation
                JOINT LeftHand
                {
                  OFFSET 27.093981 -1e-06 0.002609
                  CHANNELS 3 Zrotation Yrotation Xrotation
                  JOINT LeftHandThumb1
                  {
                    OFFSET 2.276482 -1.392045 3.191413
                    CHANNELS 3 Zrotation Yrotation Xrotation
                    JOINT LeftHandThumb2
                    {
                      OFFSET 4.012836 -1.828127 1.641654
                      CHANNELS 3 Zrotation Yrotation Xrotation
                      JOINT LeftHandThumb3
                      {
                        OFFSET 2.798515 0.0 -3e-06
                        CHANNELS 3 Zrotation Yrotation Xrotation
                        JOINT LeftHandThumbEnd
                        {
                          OFFSET 3.180793 -4e-06 4e-06
                          CHANNELS 3 Zrotation Yrotation Xrotation
                        }
                      }
                    }
                  }
                  JOINT LeftHandIndex1
                  {
                    OFFSET 3.247555 -0.531998 2.296169
                    CHANNELS 3 Zrotation Yrotation Xrotation
                    JOINT LeftHandIndex2
                    {
                      OFFSET 6.364578 0.01206 0.1786
                      CHANNELS 3 Zrotation Yrotation Xrotation
                      JOINT LeftHandIndex3
                      {
                        OFFSET 3.662364 0.0 0.0
                        CHANNELS 3 Zrotation Yrotation Xrotation
                        JOINT LeftHandIndex4
                        {
                          OFFSET 2.329242 4e-06 4e-06
                          CHANNELS 3 Zrotation Yrotation Xrotation
                          JOINT LeftHandIndexEnd
                          {
                            OFFSET 2.759615 -0.180537 -0.113024
                            CHANNELS 3 Zrotation Yrotation Xrotation
                          }
                        }
                      }
                    }
                  }
                  JOINT LeftHandMiddle1
                  {
                    OFFSET 3.163495 0.240981 1.000332
                    CHANNELS 3 Zrotation Yrotation Xrotation
                    JOINT LeftHandMiddle2
                    {
                      OFFSET 6.19078 -0.259278 -1.002548
                      CHANNELS 3 Zrotation Yrotation Xrotation
                      JOINT LeftHandMiddle3
                      {
                        OFFSET 4.35652 -4e-06 -1e-06
                        CHANNELS 3 Zrotation Yrotation Xrotation
                        JOINT LeftHandMiddle4
                        {
                          OFFSET 2.996877 -8e-06 0.0
                          CHANNELS 3 Zrotation Yrotation Xrotation
                          JOINT LeftHandMiddleEnd
                          {
                            OFFSET 2.304287 -0.294569 -0.031741
                            CHANNELS 3 Zrotation Yrotation Xrotation
                          }
                        }
                      }
                    }
                  }
                  JOINT LeftHandRing1
                  {
                    OFFSET 2.882643 -0.053652 -0.322543
                    CHANNELS 3 Zrotation Yrotation Xrotation
                    JOINT LeftHandRing2
                    {
                      OFFSET 5.854541 -0.486202 -1.373841
                      CHANNELS 3 Zrotation Yrotation Xrotation
                      JOINT LeftHandRing3
                      {
                        OFFSET 4.350578 0.0 3e-06
                        CHANNELS 3 Zrotation Yrotation Xrotation
                        JOINT LeftHandRing4
                        {
                          OFFSET 2.651321 7e-06 2e-06
                          CHANNELS 3 Zrotation Yrotation Xrotation
                          JOINT LeftHandRingEnd
                          {
                            OFFSET 1.936105 0.077687 -7.1e-05
                            CHANNELS 3 Zrotation Yrotation Xrotation
                          }
                        }
                      }
                    }
                  }
                  JOINT LeftHandPinky1
                  {
                    OFFSET 2.8655 -0.310005 -1.600378
                    CHANNELS 3 Zrotation Yrotation Xrotation
                    JOINT LeftHandPinky2
                    {
                      OFFSET 5.087849 -1.331141 -1.77123
                      CHANNELS 3 Zrotation Yrotation Xrotation
                      JOINT LeftHandPinky3
                      {
                        OFFSET 3.070974 4e-06 0.0
                        CHANNELS 3 Zrotation Yrotation Xrotation
                        JOINT LeftHandPinky4
                        {
                          OFFSET 1.549672 0.0 1e-06
                          CHANNELS 3 Zrotation Yrotation Xrotation
                          JOINT LeftHandPinkyEnd
                          {
                            OFFSET 1.944893 -0.157802 0.057219
                            CHANNELS 3 Zrotation Yrotation Xrotation
                          }
                        }
                      }
                    }
                  }
                }
              }
            }
          }
          JOINT RightShoulder
          {
            OFFSET -1.380118 23.180309 5.214158
            CHANNELS 3 Zrotation Yrotation Xrotation
            JOINT RightArm
            {
              OFFSET -15.037196 1.2e-05 -5.545604
              CHANNELS 3 Zrotation Yrotation Xrotation
              JOINT RightForeArm
              {
                OFFSET -28.736639 2e-06 -0.002597
                CHANNELS 3 Zrotation Yrotation Xrotation
                JOINT RightHand
                {
                  OFFSET -27.133619 -0.0 0.002613
                  CHANNELS 3 Zrotation Yrotation Xrotation
                  JOINT RightHandThumb1
                  {
                    OFFSET -2.274032 -1.383988 3.163127
                    CHANNELS 3 Zrotation Yrotation Xrotation
                    JOINT RightHandThumb2
                    {
                      OFFSET -4.011429 -1.827466 1.640914
                      CHANNELS 3 Zrotation Yrotation Xrotation
                      JOINT RightHandThumb3
                      {
                        OFFSET -2.794935 -4e-06 -3e-06
                        CHANNELS 3 Zrotation Yrotation Xrotation
                        JOINT RightHandThumbEnd
                        {
                          OFFSET -3.183852 4e-06 1e-06
                          CHANNELS 3 Zrotation Yrotation Xrotation
                        }
                      }
                    }
                  }
                  JOINT RightHandIndex1
                  {
                    OFFSET -3.253266 -0.520057 2.282866
                    CHANNELS 3 Zrotation Yrotation Xrotation
                    JOINT RightHandIndex2
                    {
                      OFFSET -6.341917 0.012471 0.178266
                      CHANNELS 3 Zrotation Yrotation Xrotation
                      JOINT RightHandIndex3
                      {
                        OFFSET -3.654871 -8e-06 -0.0
                        CHANNELS 3 Zrotation Yrotation Xrotation
                        JOINT RightHandIndex4
                        {
                          OFFSET -2.327586 0.0 1e-06
                          CHANNELS 3 Zrotation Yrotation Xrotation
                          JOINT RightHandIndexEnd
                          {
                            OFFSET -2.76179 -0.180656 -0.113078
                            CHANNELS 3 Zrotation Yrotation Xrotation
                          }
                        }
                      }
                    }
                  }
                  JOINT RightHandMiddle1
                  {
                    OFFSET -3.168106 0.246593 1.00103
                    CHANNELS 3 Zrotation Yrotation Xrotation
                    JOINT RightHandMiddle2
                    {
                      OFFSET -6.180828 -0.258836 -1.000895
                      CHANNELS 3 Zrotation Yrotation Xrotation
                      JOINT RightHandMiddle3
                      {
                        OFFSET -4.348901 0.0 -0.0
                        CHANNELS 3 Zrotation Yrotation Xrotation
                        JOINT RightHandMiddle4
                        {
                          OFFSET -3.00024 -4e-06 -2e-06
                          CHANNELS 3 Zrotation Yrotation Xrotation
                          JOINT RightHandMiddleEnd
                          {
                            OFFSET -2.30252 -0.29437 -0.031706
                            CHANNELS 3 Zrotation Yrotation Xrotation
                          }
                        }
                      }
                    }
                  }
                  JOINT RightHandRing1
                  {
                    OFFSET -2.88569 -0.067952 -0.308858
                    CHANNELS 3 Zrotation Yrotation Xrotation
                    JOINT RightHandRing2
                    {
                      OFFSET -5.854198 -0.48613 -1.373731
                      CHANNELS 3 Zrotation Yrotation Xrotation
                      JOINT RightHandRing3
                      {
                        OFFSET -4.33881 -4e-06 -0.0
                        CHANNELS 3 Zrotation Yrotation Xrotation
                        JOINT RightHandRing4
                        {
                          OFFSET -2.654903 -4e-06 4e-06
                          CHANNELS 3 Zrotation Yrotation Xrotation
                          JOINT RightHandRingEnd
                          {
                            OFFSET -1.933568 0.077527 -5.2e-05
                            CHANNELS 3 Zrotation Yrotation Xrotation
                          }
                        }
                      }
                    }
                  }
                  JOINT RightHandPinky1
                  {
                    OFFSET -2.866425 -0.342796 -1.584145
                    CHANNELS 3 Zrotation Yrotation Xrotation
                    JOINT RightHandPinky2
                    {
                      OFFSET -5.091371 -1.332055 -1.772385
                      CHANNELS 3 Zrotation Yrotation Xrotation
                      JOINT RightHandPinky3
                      {
                        OFFSET -3.062664 -4e-06 1e-06
                        CHANNELS 3 Zrotation Yrotation Xrotation
                        JOINT RightHandPinky4
                        {
                          OFFSET -1.546529 4e-06 -2e-06
                          CHANNELS 3 Zrotation Yrotation Xrotation
                          JOINT RightHandPinkyEnd
                          {
                            OFFSET -1.945119 -0.157718 0.057211
                            CHANNELS 3 Zrotation Yrotation Xrotation
                          }
                        }
                      }
                    }
                  }
                }
              }
            }
          }
        }
      }
    }
    JOINT LeftLeg
    {
      OFFSET 10.043214 -8.434526 2.595655
      CHANNELS 3 Zrotation Yrotation Xrotation
      JOINT LeftShin
      {
        OFFSET -1e-06 -43.221752 -0.802913
        CHANNELS 3 Zrotation Yrotation Xrotation
        JOINT LeftFoot
        {
          OFFSET 1e-06 -42.155094 -3.481523
          CHANNELS 3 Zrotation Yrotation Xrotation
          JOINT LeftToeBase
          {
            OFFSET 0.0 -5.059472 13.231529
            CHANNELS 3 Zrotation Yrotation Xrotation
            JOINT LeftToeEnd
            {
              OFFSET -0.009607 -1.647619 6.513017
              CHANNELS 3 Zrotation Yrotation Xrotation
            }
          }
        }
      }
    }
    JOINT RightLeg
    {
      OFFSET -10.047278 -8.29526 2.620317
      CHANNELS 3 Zrotation Yrotation Xrotation
      JOINT RightShin
      {
        OFFSET 1e-06 -43.362206 -0.805556
        CHANNELS 3 Zrotation Yrotation Xrotation
        JOINT RightFoot
        {
          OFFSET 2e-06 -42.117393 -3.478398
          CHANNELS 3 Zrotation Yrotation Xrotation
          JOINT RightToeBase
          {
            OFFSET -0.0 -5.079609 13.284196
            CHANNELS 3 Zrotation Yrotation Xrotation
            JOINT RightToeEnd
            {
              OFFSET 0.009532 -1.634378 6.460591
              CHANNELS 3 Zrotation Yrotation Xrotation
            }
          }
        }
      }
    }
  }
}
MOTION
Frames: 4
Frame Time: 0.03333333333333333
0.0 0.0 0.0 0.0 -0.0 0.0 2.10558 100.226364 1.599252 0.449397 -0.399008 0.059284 0.56593 -0.028401 -2.689309 -0.428814 0.132585 -6.190136 -0.128447 -1.596366 12.51987 -0.311316 2.69378 6.445405 -0.341994 1.335545 -3.666317 0.676707 0.833184 -11.199324 7.7e-05 -2.3e-05 6e-06 -0.00522 -0.047192 0.050363 0.678204 -3.807831 -10.591642 -0.689994 3.721567 -10.595821 -5.632226 -5.33611 14.178761 -69.562355 -13.126479 33.908138 -0.239395 -25.73184 0.20326 3.490533 -1.903033 -14.460923 -5.882106 9.861283 0.702591 -10.93687 -0.360573 7.156207 -0.0 8.774824 -0.0 -16.202969 18.113956 6.110178 -1.844033 2.498504 -2.507278 -10.163601 4.678946 4.621109 -20.976023 -2e-06 -1e-06 -21.226288 2.451698 -3.593999 1e-06 -6e-06 -0.0 -1.362682 2.240797 -0.74632 -21.334911 0.584912 3.008323 -13.82121 -1e-06 -1e-06 -23.887167 -0.249077 -0.839486 -60.604733 2.51691 -1.109871 -0.294026 1.679688 0.833255 -14.218209 0.093216 1.30058 -34.212051 -0.287561 0.967168 -20.033215 0.964538 1.212841 0.0 1e-06 1e-06 -3.440388 0.788234 0.501655 -15.928185 -3.167307 2.999708 -6.338826 -2e-06 -0.0 -18.123444 3.648183 -4.905671 -2e-06 -1e-06 -3e-06 13.913393 7.939205 15.848466 63.646175 14.878481 22.465263 -0.205597 23.705481 -0.075551 -5.61506 -1.873363 0.260371 2.243542 -5.255037 -3.180158 14.282892 -0.826597 6.952507 -1e-06 -12.690603 2e-06 16.214031 -17.799658 2.567317 1.665666 -1.955922 -2.878299 4.727799 -4.170587 4.993925 11.020527 1e-06 -1e-06 12.109053 -3.735717 -2.866787 -0.0 0.0 -1e-06 1.291985 -1.928549 -1.498089 14.800129 0.567464 3.865608 14.242573 -1.341739 -6.660659 19.631969 0.143924 -0.648247 49.854202 -0.494284 -6.332961 0.353029 -1.511151 -0.031942 20.222792 3.684306 2.316631 18.787275 2e-06 -2e-06 10.751631 -0.479869 1.397906 -0.0 1e-06 0.0 3.273807 0.305946 -0.580109 21.486813 11.830371 2.266133 8.162928 2e-06 -1e-06 18.399082 -3.798985 -4.940578 5e-06 0.0 -0.0 0.685969 1.359912 0.922394 0.004328 0.259806 4.164689 -3.126087 3.212115 -5.514007 1.613296 -1.927378 -1.206829 0.0 -0.0 2e-06 -1.217398 1.290912 -1.791704 -0.024096 -0.003545 8.468586 1.454288 -10.190707 -6.855305 -1.398237 1.077452 -1.723841 0.0 0.0 -1e-06 
0.0 0.0 0.0 0.0 -0.0 0.0 2.135211 100.234917 1.553452 0.513663 -0.362857 0.388129 0.546575 -0.029484 -2.456939 -0.411272 0.1494 -6.087377 -0.220879 -1.692686 12.329854 -0.429158 2.700378 6.384659 -0.272338 1.394964 -3.65029 0.625474 0.818648 -11.594428 7.7e-05 -2.3e-05 6e-06 -0.004189 -0.01058 0.045323 0.668344 -3.773677 -10.561141 -0.678005 3.75984 -10.573862 -5.391011 -5.418211 14.180006 -69.960648 -13.020475 32.589466 -0.293318 -26.341164 0.223122 3.24517 -2.310455 -15.192892 -5.882107 9.861288 0.702589 -10.936872 -0.360575 7.156203 0.0 8.774826 -1e-06 -16.184109 18.077301 6.167816 -1.844033 2.498505 -2.507275 -10.163601 4.678946 4.621106 -20.976028 -5e-06 0.0 -21.226292 2.451695 -3.594001 1e-06 -6e-06 -1e-06 -1.362682 2.240799 -0.746325 -21.334921 0.584909 3.008321 -13.821215 -2e-06 -2e-06 -23.887175 -0.249081 -0.839484 -60.610729 2.542691 -0.988833 -0.294024 1.679687 0.833256 -14.218211 0.093215 1.30058 -34.212063 -0.287564 0.967168 -20.033218 0.964536 1.21284 0.0 -1e-06 -1e-06 -3.440389 0.788233 0.501656 -15.928189 -3.167311 2.999706 -6.338828 -2e-06 -0.0 -18.123449 3.648182 -4.905674 -2e-06 0.0 -2e-06 13.568173 8.030065 15.986115 64.20089 15.151585 22.089964 -0.208726 24.321129 -0.050887 -5.727179 -1.830654 -0.245557 2.243543 -5.255037 -3.180157 14.282891 -0.826595 6.952503 -3e-06 -12.690604 1e-06 16.236111 -17.766724 2.568086 1.665666 -1.955921 -2.878297 4.727799 -4.170588 4.993921 11.020524 3e-06 -2e-06 12.109052 -3.735715 -2.866784 -0.0 0.0 -1e-06 1.291986 -1.928549 -1.498088 14.800125 0.567467 3.865604 14.242569 -1.341736 -6.660657 19.631969 0.143927 -0.648246 49.870728 -0.481568 -6.331534 0.353028 -1.511151 -0.03194 20.222788 3.68431 2.316629 18.78727 5e-06 -0.0 10.751627 -0.479868 1.397904 1e-06 2e-06 1e-06 3.273806 0.305947 -0.580112 21.486809 11.830371 2.266129 8.162926 3e-06 -2e-06 18.39908 -3.798984 -4.940576 4e-06 1e-06 -2e-06 0.561173 1.074269 0.318092 -0.009878 0.230719 4.571998 -3.207454 3.571844 -5.609986 1.610662 -1.936087 -1.345095 0.0 -0.0 2e-06 -1.297103 1.528248 -2.397363 -0.006881 0.040304 8.904358 1.525845 -10.570215 -6.986156 -1.404333 1.067456 -1.755887 0.0 0.0 -1e-06 
0.0 0.0 0.0 0.0 -0.0 0.0 2.154092 100.136856 1.456809 0.574495 -0.229281 0.78626 0.535627 -0.048524 -2.088485 -0.394558 0.100194 -5.925015 -0.256018 -1.723562 12.050861 -0.534482 2.689262 6.302123 -0.218425 1.423456 -3.679829 0.504154 0.7958 -12.150513 7.7e-05 -2.3e-05 6e-06 -2.9e-05 0.007171 0.047211 0.659482 -3.757582 -10.549407 -0.661122 3.777436 -10.567908 -4.948579 -5.590353 14.207436 -70.50679 -12.687841 30.47698 -0.291377 -27.500805 0.238322 2.880987 -2.968275 -16.549101 -5.882108 9.861284 0.702591 -10.936873 -0.360574 7.156208 -0.0 8.774824 -1e-06 -16.160204 18.075268 6.225242 -1.844032 2.498503 -2.507278 -10.163601 4.678945 4.621109 -20.976025 -3e-06 0.0 -21.226288 2.451695 -3.594001 2e-06 -5e-06 -1e-06 -1.362682 2.240798 -0.746323 -21.334915 0.584911 3.008324 -13.821216 -2e-06 1e-06 -23.887175 -0.24908 -0.839484 -60.642807 2.587644 -0.995978 -0.294025 1.679687 0.833257 -14.21821 0.093215 1.300579 -34.212051 -0.287563 0.967171 -20.033218 0.964538 1.212843 1e-06 0.0 0.0 -3.440389 0.788233 0.501657 -15.928187 -3.16731 2.999709 -6.338827 -2e-06 2e-06 -18.123446 3.648182 -4.905671 -3e-06 0.0 -2e-06 12.852969 8.128653 16.079155 65.031807 15.261167 21.509552 -0.253326 25.551517 -0.056176 -5.872486 -1.933493 -0.930278 2.243542 -5.255037 -3.180159 14.28289 -0.826596 6.9525 -2e-06 -12.690603 3e-06 16.222815 -17.702724 2.583354 1.665666 -1.955921 -2.878298 4.727798 -4.170587 4.993923 11.020524 2e-06 -2e-06 12.109052 -3.735716 -2.866785 -1e-06 0.0 -0.0 1.291986 -1.92855 -1.498089 14.800129 0.567466 3.865606 14.242572 -1.341739 -6.660655 19.631968 0.143923 -0.648246 49.793659 -0.485789 -6.332319 0.353029 -1.511151 -0.031941 20.222788 3.684307 2.31663 18.78727 3e-06 -2e-06 10.751629 -0.479868 1.397904 1e-06 2e-06 -0.0 3.273807 0.305947 -0.580109 21.486809 11.830371 2.266131 8.16293 3e-06 -2e-06 18.399084 -3.798985 -4.940576 4e-06 0.0 -1e-06 0.371661 0.599777 -1.464164 0.000825 0.172854 7.077905 -3.130282 3.994225 -6.645853 1.616488 -1.93121 -1.446359 0.0 0.0 2e-06 -1.367173 1.736391 -3.726691 -0.002897 0.062368 10.613671 1.750602 -11.073814 -7.744868 -1.406361 1.071446 -1.690885 0.0 0.0 -1e-06 
0.0 0.0 0.0 0.0 -0.0 0.0 2.151426 99.86496 1.236513 0.593401 -0.042875 1.221543 0.542958 -0.078792 -1.525027 -0.36836 0.049675 -5.697989 -0.214072 -1.72306 11.679474 -0.654758 2.65057 6.071842 -0.191241 1.442965 -3.682391 0.409496 0.788699 -13.025326 7.7e-05 -2.3e-05 6e-06 0.007144 0.018913 0.049978 0.654214 -3.749048 -10.540895 -0.642106 3.791126 -10.561948 -4.21982 -5.848942 14.270596 -71.363396 -12.15097 27.66164 -0.238257 -29.178596 0.267698 2.616096 -3.956277 -18.343649 -5.882112 9.861292 0.702589 -10.936881 -0.360575 7.156208 -0.0 8.774831 -1e-06 -16.106625 18.037096 6.272087 -1.844034 2.498505 -2.507278 -10.163609 4.678946 4.621108 -20.976042 -5e-06 -1e-06 -21.226301 2.451694 -3.594003 1e-06 -6e-06 1e-06 -1.362683 2.2408 -0.746324 -21.33493 0.584909 3.00832 -13.821228 -4e-06 -1e-06 -23.887192 -0.249082 -0.839485 -60.717945 2.618032 -1.033265 -0.294024 1.679687 0.833257 -14.218222 0.093214 1.300579 -34.212078 -0.287569 0.967167 -20.03323 0.964533 1.212842 1e-06 1e-06 0.0 -3.440391 0.788234 0.501654 -15.928201 -3.167313 2.999705 -6.338833 -2e-06 0.0 -18.123465 3.648182 -4.905676 -3e-06 -1e-06 -1e-06 11.703934 8.240508 16.140259 66.191757 15.209146 20.71805 -0.359083 27.424805 -0.067592 -6.037315 -2.132353 -2.065822 2.243544 -5.255041 -3.18016 14.282899 -0.826597 6.952502 -1e-06 -12.690612 -1e-06 16.180367 -17.652485 2.61372 1.665668 -1.955922 -2.878299 4.727801 -4.170591 4.993925 11.020531 1e-06 -3e-06 12.109059 -3.735718 -2.866786 -1e-06 -0.0 -1e-06 1.291987 -1.92855 -1.49809 14.800136 0.567466 3.865607 14.242582 -1.341738 -6.660661 19.631975 0.143924 -0.64825 49.723328 -0.49949 -6.323689 0.35303 -1.511152 -0.031941 20.222801 3.684309 2.316627 18.787287 4e-06 -4e-06 10.751633 -0.479869 1.397904 0.0 1e-06 -1e-06 3.273809 0.305947 -0.58011 21.486824 11.830381 2.266129 8.162933 2e-06 -1e-06 18.399097 -3.798987 -4.940584 4e-06 1e-06 -1e-06 0.255224 0.05336 -4.102421 0.039524 0.131958 11.10303 -3.014424 4.444586 -8.425488 1.630795 -1.91601 -1.545649 0.0 0.0 2e-06 -1.374386 1.842756 -5.8264 -0.022914 0.080456 13.689006 2.057989 -11.510464 -9.178964 -1.411028 1.080762 -1.618806 0.0 1e-06 -1e-06 
